<mxfile host="Electron" modified="2024-05-09T16:36:37.716Z" agent="Mozilla/5.0 (Macintosh; Intel Mac OS X 10_15_7) AppleWebKit/537.36 (KHTML, like Gecko) draw.io/24.2.5 Chrome/120.0.6099.109 Electron/28.1.0 Safari/537.36" version="24.2.5" etag="IFEtVqfcSQI75oJc2xtD" type="device">
  <diagram id="OsLn9sZNuPgcoXNFT_DK" name="Page-1">
    <mxGraphModel dx="1177" dy="1981" grid="1" gridSize="10" guides="1" tooltips="1" connect="1" arrows="1" fold="1" page="1" pageScale="1" pageWidth="850" pageHeight="1100" math="0" shadow="0">
      <root>
        <mxCell id="0" />
        <mxCell id="1" parent="0" />
        <mxCell id="2" value="&lt;font style=&quot;font-size: 14px;&quot;&gt;FORWARD&lt;/font&gt;" style="whiteSpace=wrap;html=1;rounded=1;arcSize=2;shadow=0;glass=0;dashed=1;comic=0;strokeWidth=3;fontSize=15;align=center;labelPosition=center;verticalLabelPosition=top;verticalAlign=bottom;fontStyle=0;horizontal=1;spacingLeft=15;connectable=1;container=1;collapsible=0;recursiveResize=0;dashPattern=4 3 4 3 4 3 32 3;spacingRight=15;sketch=0;fillStyle=auto;fillColor=#383835;strokeColor=#696963;fontColor=#FFFFFF;" parent="1" vertex="1">
          <mxGeometry x="490" y="-1060" width="180" height="180" as="geometry" />
        </mxCell>
        <mxCell id="YwrOM24A2LdRjw4jxiOU-31" value="LUDUS_DEFAULTS" style="text;html=1;align=center;verticalAlign=middle;whiteSpace=wrap;rounded=0;" vertex="1" parent="2">
          <mxGeometry x="60" y="10" width="60" height="30" as="geometry" />
        </mxCell>
        <mxCell id="YwrOM24A2LdRjw4jxiOU-32" value="LUIDUS_TESTIING" style="text;html=1;align=center;verticalAlign=middle;whiteSpace=wrap;rounded=0;" vertex="1" parent="2">
          <mxGeometry x="60" y="30" width="60" height="30" as="geometry" />
        </mxCell>
        <mxCell id="YwrOM24A2LdRjw4jxiOU-33" value="LUDUS_USER" style="text;html=1;align=center;verticalAlign=middle;whiteSpace=wrap;rounded=0;" vertex="1" parent="2">
          <mxGeometry x="60" y="50" width="60" height="30" as="geometry" />
        </mxCell>
        <mxCell id="YwrOM24A2LdRjw4jxiOU-34" value="POLICY: DROP" style="text;html=1;align=center;verticalAlign=middle;whiteSpace=wrap;rounded=0;" vertex="1" parent="2">
          <mxGeometry x="45" y="150" width="90" height="30" as="geometry" />
        </mxCell>
        <mxCell id="YwrOM24A2LdRjw4jxiOU-2" value="&lt;font style=&quot;font-size: 15px;&quot;&gt;LUDUS_DEFAULTS&lt;/font&gt;" style="whiteSpace=wrap;html=1;dashed=1;strokeWidth=3;rounded=1;arcSize=2;glass=0;comic=0;shadow=0;fontSize=20;align=center;labelPosition=center;verticalLabelPosition=top;verticalAlign=bottom;spacingLeft=15;connectable=0;container=1;collapsible=0;recursiveResize=0;dashPattern=4 3 4 3 4 3 32 3;strokeColor=#F5C100;fillColor=#292000;" vertex="1" parent="1">
          <mxGeometry x="120" y="-780" width="180" height="190" as="geometry" />
        </mxCell>
        <mxCell id="YwrOM24A2LdRjw4jxiOU-46" value="Allow related/established&lt;div&gt;Allow Ludus host in&lt;/div&gt;&lt;div&gt;Allow WireGuard in&lt;/div&gt;&lt;div&gt;Allow WireGuard in for granted access&lt;/div&gt;&lt;div&gt;Deny all traffic on &quot;WAN&quot; interface&lt;/div&gt;" style="text;html=1;align=left;verticalAlign=middle;whiteSpace=wrap;rounded=0;" vertex="1" parent="YwrOM24A2LdRjw4jxiOU-2">
          <mxGeometry x="20" y="30" width="140" height="60" as="geometry" />
        </mxCell>
        <mxCell id="YwrOM24A2LdRjw4jxiOU-26" value="&lt;font style=&quot;font-size: 15px;&quot;&gt;LUDUS_TESTING&lt;/font&gt;" style="whiteSpace=wrap;html=1;dashed=1;strokeWidth=3;rounded=1;arcSize=2;glass=0;comic=0;shadow=0;fontSize=20;align=center;labelPosition=center;verticalLabelPosition=top;verticalAlign=bottom;spacingLeft=15;connectable=0;container=1;collapsible=0;recursiveResize=0;dashPattern=4 3 4 3 4 3 32 3;strokeColor=#F5C100;fillColor=#292000;" vertex="1" parent="1">
          <mxGeometry x="350" y="-710" width="200" height="190" as="geometry" />
        </mxCell>
        <mxCell id="YwrOM24A2LdRjw4jxiOU-35" value="Allow rules for VMs with block_internet: false" style="text;html=1;align=left;verticalAlign=middle;whiteSpace=wrap;rounded=0;" vertex="1" parent="YwrOM24A2LdRjw4jxiOU-26">
          <mxGeometry x="30" y="10" width="140" height="60" as="geometry" />
        </mxCell>
        <mxCell id="YwrOM24A2LdRjw4jxiOU-36" value="Allow rules for domains/IPs set by the user" style="text;html=1;align=left;verticalAlign=middle;whiteSpace=wrap;rounded=0;" vertex="1" parent="YwrOM24A2LdRjw4jxiOU-26">
          <mxGeometry x="30" y="65" width="150" height="60" as="geometry" />
        </mxCell>
        <mxCell id="YwrOM24A2LdRjw4jxiOU-27" value="" style="curved=1;endArrow=classic;html=1;rounded=0;exitX=0;exitY=0.111;exitDx=0;exitDy=0;exitPerimeter=0;" edge="1" parent="1" source="2">
          <mxGeometry width="50" height="50" relative="1" as="geometry">
            <mxPoint x="540" y="-490" as="sourcePoint" />
            <mxPoint x="270" y="-820" as="targetPoint" />
            <Array as="points">
              <mxPoint x="420" y="-880" />
              <mxPoint x="280" y="-860" />
            </Array>
          </mxGeometry>
        </mxCell>
        <mxCell id="YwrOM24A2LdRjw4jxiOU-28" value="&lt;font style=&quot;font-size: 15px;&quot;&gt;LUDUS_USER&lt;/font&gt;" style="whiteSpace=wrap;html=1;dashed=1;strokeWidth=3;rounded=1;arcSize=2;glass=0;comic=0;shadow=0;fontSize=20;align=center;labelPosition=center;verticalLabelPosition=top;verticalAlign=bottom;spacingLeft=15;connectable=0;container=1;collapsible=0;recursiveResize=0;dashPattern=4 3 4 3 4 3 32 3;strokeColor=#F5C100;fillColor=#292000;" vertex="1" parent="1">
          <mxGeometry x="580" y="-640" width="180" height="190" as="geometry" />
        </mxCell>
        <mxCell id="YwrOM24A2LdRjw4jxiOU-43" value="Rules set in the `network:` block of the range config" style="text;html=1;align=left;verticalAlign=middle;whiteSpace=wrap;rounded=0;" vertex="1" parent="YwrOM24A2LdRjw4jxiOU-28">
          <mxGeometry x="20" y="10" width="150" height="60" as="geometry" />
        </mxCell>
        <mxCell id="YwrOM24A2LdRjw4jxiOU-44" value="Default inter-VLAN rule" style="text;html=1;align=left;verticalAlign=middle;whiteSpace=wrap;rounded=0;" vertex="1" parent="YwrOM24A2LdRjw4jxiOU-28">
          <mxGeometry x="20" y="55" width="150" height="60" as="geometry" />
        </mxCell>
        <mxCell id="YwrOM24A2LdRjw4jxiOU-45" value="Default external rule (removed during testing)" style="text;html=1;align=left;verticalAlign=middle;whiteSpace=wrap;rounded=0;" vertex="1" parent="YwrOM24A2LdRjw4jxiOU-28">
          <mxGeometry x="20" y="90" width="150" height="60" as="geometry" />
        </mxCell>
        <mxCell id="YwrOM24A2LdRjw4jxiOU-29" value="" style="curved=1;endArrow=classic;html=1;rounded=0;" edge="1" parent="1">
          <mxGeometry width="50" height="50" relative="1" as="geometry">
            <mxPoint x="280" y="-570" as="sourcePoint" />
            <mxPoint x="370" y="-730" as="targetPoint" />
            <Array as="points">
              <mxPoint x="330" y="-570" />
              <mxPoint x="310" y="-700" />
            </Array>
          </mxGeometry>
        </mxCell>
        <mxCell id="YwrOM24A2LdRjw4jxiOU-30" value="" style="curved=1;endArrow=classic;html=1;rounded=0;" edge="1" parent="1">
          <mxGeometry width="50" height="50" relative="1" as="geometry">
            <mxPoint x="520" y="-500" as="sourcePoint" />
            <mxPoint x="610" y="-660" as="targetPoint" />
            <Array as="points">
              <mxPoint x="570" y="-500" />
              <mxPoint x="550" y="-630" />
            </Array>
          </mxGeometry>
        </mxCell>
        <mxCell id="YwrOM24A2LdRjw4jxiOU-47" value="&lt;font style=&quot;font-size: 14px;&quot;&gt;INPUT&lt;/font&gt;" style="whiteSpace=wrap;html=1;rounded=1;arcSize=2;shadow=0;glass=0;dashed=1;comic=0;strokeWidth=3;fontSize=15;align=center;labelPosition=center;verticalLabelPosition=top;verticalAlign=bottom;fontStyle=0;horizontal=1;spacingLeft=15;connectable=1;container=1;collapsible=0;recursiveResize=0;dashPattern=4 3 4 3 4 3 32 3;spacingRight=15;sketch=0;fillStyle=auto;fillColor=#383835;strokeColor=#696963;fontColor=#FFFFFF;" vertex="1" parent="1">
          <mxGeometry x="160" y="-1060" width="180" height="180" as="geometry" />
        </mxCell>
        <mxCell id="YwrOM24A2LdRjw4jxiOU-48" value="LUDUS_DEFAULTS" style="text;html=1;align=center;verticalAlign=middle;whiteSpace=wrap;rounded=0;" vertex="1" parent="YwrOM24A2LdRjw4jxiOU-47">
          <mxGeometry x="60" y="10" width="60" height="30" as="geometry" />
        </mxCell>
        <mxCell id="YwrOM24A2LdRjw4jxiOU-49" value="Deny range traffic to SSH" style="text;html=1;align=center;verticalAlign=middle;whiteSpace=wrap;rounded=0;" vertex="1" parent="YwrOM24A2LdRjw4jxiOU-47">
          <mxGeometry x="15" y="30" width="150" height="30" as="geometry" />
        </mxCell>
        <mxCell id="YwrOM24A2LdRjw4jxiOU-51" value="POLICY: ACCEPT" style="text;html=1;align=center;verticalAlign=middle;whiteSpace=wrap;rounded=0;" vertex="1" parent="YwrOM24A2LdRjw4jxiOU-47">
          <mxGeometry x="37.5" y="150" width="105" height="30" as="geometry" />
        </mxCell>
        <mxCell id="YwrOM24A2LdRjw4jxiOU-52" value="" style="curved=1;endArrow=classic;html=1;rounded=0;fontColor=#00fbff;fillColor=#60a917;strokeColor=#2D7600;" edge="1" parent="1">
          <mxGeometry width="50" height="50" relative="1" as="geometry">
            <mxPoint x="150" y="-1030" as="sourcePoint" />
            <mxPoint x="150" y="-810" as="targetPoint" />
            <Array as="points">
              <mxPoint x="110" y="-1040" />
            </Array>
          </mxGeometry>
        </mxCell>
        <mxCell id="YwrOM24A2LdRjw4jxiOU-55" value="" style="curved=1;endArrow=classic;html=1;rounded=0;fontColor=#00fbff;fillColor=#60a917;strokeColor=#2D7600;" edge="1" parent="1">
          <mxGeometry width="50" height="50" relative="1" as="geometry">
            <mxPoint x="130" y="-570" as="sourcePoint" />
            <mxPoint x="150" y="-1020" as="targetPoint" />
            <Array as="points">
              <mxPoint x="80" y="-590" />
              <mxPoint x="80" y="-1010" />
            </Array>
          </mxGeometry>
        </mxCell>
        <mxCell id="YwrOM24A2LdRjw4jxiOU-56" value="" style="curved=1;endArrow=classic;html=1;rounded=0;" edge="1" parent="1">
          <mxGeometry width="50" height="50" relative="1" as="geometry">
            <mxPoint x="770" y="-460" as="sourcePoint" />
            <mxPoint x="690" y="-970" as="targetPoint" />
            <Array as="points">
              <mxPoint x="800" y="-450" />
              <mxPoint x="760" y="-970" />
            </Array>
          </mxGeometry>
        </mxCell>
      </root>
    </mxGraphModel>
  </diagram>
</mxfile>
